<svg xmlns="http://www.w3.org/2000/svg" viewBox="0 0 948 1600" width="948" height="1600">
	<style>
		tspan { white-space:pre }
		.shp0 { fill: #eae9e1 } 
		.shp1 { fill: #9a9872 } 
		.txt2 { font-size: 27px;fill: #1a1a1a;font-family: "HYXiaoMaiTiJ";font-weight: 400;text-anchor: middle } 
		.txt3 { font-size: 67px;fill: #1a1a1a;font-family: "HYXiaoMaiTiJ";font-weight: 400;text-anchor: middle } 
	</style>
	<path id="Background" class="shp0" d="M0,1600h948v-1600h-948z" />
	<g id="Border-right">
		<g id="confetti">
			<path id="Layer" class="shp1" d="M807.39,55.42c27.48,29.31 -9.62,87.48 -23.36,75.11c-10.08,-9.16 -18.32,24.27 9.62,15.11c27.94,-9.16 45.34,-76.03 16.95,-96.18c-32.06,-22.44 -63.2,27.94 -63.66,28.4c-0.46,0.46 39.39,-44.88 60.46,-22.44zM784.04,130.53c-10.08,-9.16 47.63,-97.1 80.15,-59.54c32.98,37.1 -13.28,100.76 -24.27,82.44c-10.99,-17.86 -18.32,26.56 6.41,19.24c49.01,-14.66 61.37,-96.18 21.98,-121.37c-28.85,-17.86 -61.83,11.91 -78.78,32.98c-28.4,35.72 -24.27,69.62 3.66,61.37c0,0 4.58,-2.75 -9.16,-15.11zM840.37,153.89c-11.45,-17.86 37.1,-72.36 66.87,-52.67c26.56,16.95 17.86,56.33 8.24,71.91c-10.53,16.49 1.37,13.28 1.37,13.28c19.24,-19.24 33.43,-70.07 5.5,-94.35c-29.31,-25.19 -64.58,-6.41 -82.44,19.24c-23.82,34.35 -18.32,69.16 6.41,61.37c0,0 5.04,-1.37 -5.95,-18.78zM915.02,172.67c-10.53,16.49 -43.05,28.4 -12.82,-21.07c28.4,-46.72 84.73,-5.04 84.73,-4.12c0,0.46 -56.79,-49.46 -91.6,0.92c-33.89,49.46 0,58.62 20.61,37.56c19.24,-19.24 8.7,-28.85 -0.92,-13.28zM751.98,152.51l-5.95,10.53l10.53,5.95l5.95,-10.53zM800.98,229l-5.95,10.53l10.53,5.95l5.95,-10.53zM895.79,402.12l-5.95,10.53l10.53,5.95l5.95,-10.53zM881.13,5.04l-5.95,10.53l10.53,5.95l5.95,-10.53zM922.35,298.16l-5.95,10.53l10.53,5.95l5.95,-10.53zM716.71,410.83l-5.95,10.53l10.53,5.95l5.95,-10.53z" />
			<path id="Layer" class="shp1" d="M753.81,355.87c39.39,-10.08 74.2,51.3 56.33,57.71c-12.82,4.58 13.28,28.4 18.32,-0.92c5.04,-29.31 -47.17,-78.32 -78.32,-62.75c-35.72,17.4 -5.04,70.07 -4.58,70.99c0,0.46 -21.98,-57.25 8.24,-65.04zM810.14,413.57c-12.82,4.58 -65.04,-90.23 -15.57,-101.22c49.01,-10.53 84.73,61.83 63.2,62.75c-21.53,0.92 15.11,29.31 20.15,3.66c9.62,-50.84 -57.71,-102.13 -99.39,-79.23c-29.77,16.49 -18.32,60.91 -7.33,86.1c18.78,43.05 51.3,55.88 57.25,27.02c0,0 -0.46,-5.5 -18.32,0.92zM857.77,375.1c-21.53,1.37 -47.63,-68.7 -15.57,-85.65c27.94,-15.11 59.08,11.91 68.24,28.4c10.08,17.4 12.82,5.04 12.82,5.04c-7.79,-26.56 -47.17,-64.58 -81.98,-51.3c-36.64,13.28 -36.64,54.04 -21.98,82.9c19.69,38.01 54.04,50.38 58.62,24.27c0,0 1.37,-5.04 -20.15,-3.66zM910.44,317.85c10.08,17.4 5.5,51.75 -25.19,0.92c-28.85,-48.55 35.72,-77.86 36.64,-77.86c0.46,0.46 -71.45,26.11 -42.14,82.44c28.4,54.5 52.67,28.85 43.51,0c-8.7,-26.56 -21.98,-21.98 -12.82,-5.5zM788.16,160.3l-5.5,9.62l9.62,5.5l5.5,-9.62zM851.82,18.32l-5.5,9.62l9.62,5.5l5.5,-9.62zM883.88,227.17l-5.5,9.62l9.62,5.95l5.5,-9.62zM931.05,412.2l-5.5,9.62l9.62,5.5l5.5,-9.62zM764.34,282.59l-5.5,9.62l9.62,5.5l5.5,-9.62zM748.77,29.77l-5.5,9.62l9.62,5.5l5.5,-9.62zM903.57,104.42l-5.5,9.62l9.62,5.5l5.5,-9.62z" />
		</g>
		<g id="confetti">
			<path id="Layer" class="shp1" d="M807.39,512.03c27.48,29.31 -9.62,87.48 -23.36,75.11c-10.08,-9.16 -18.32,24.27 9.62,15.11c27.94,-9.16 45.34,-76.03 16.95,-96.18c-32.06,-22.44 -63.2,27.94 -63.66,28.4c-0.46,0.46 39.39,-44.88 60.46,-22.44zM784.04,587.14c-10.08,-9.16 47.63,-97.1 80.15,-59.54c32.98,37.1 -13.28,100.76 -24.27,82.44c-10.99,-17.86 -18.32,26.56 6.41,19.24c49.01,-14.66 61.37,-96.18 21.98,-121.37c-28.85,-17.86 -61.83,11.91 -78.78,32.98c-28.4,35.72 -24.27,69.62 3.66,61.37c0,0 4.58,-2.75 -9.16,-15.11zM840.37,610.5c-11.45,-17.86 37.1,-72.36 66.87,-52.67c26.56,16.95 17.86,56.33 8.24,71.91c-10.53,16.49 1.37,13.28 1.37,13.28c19.24,-19.24 33.43,-70.07 5.5,-94.35c-29.31,-25.19 -64.58,-6.41 -82.44,19.24c-23.82,34.35 -18.32,69.16 6.41,61.37c0,0 5.04,-1.37 -5.95,-18.78zM915.02,629.28c-10.53,16.49 -43.05,28.4 -12.82,-21.07c28.4,-46.72 84.73,-5.04 84.73,-4.12c0,0.46 -56.79,-49.46 -91.6,0.92c-33.89,49.46 0,58.62 20.61,37.56c19.24,-19.24 8.7,-28.85 -0.92,-13.28zM751.98,609.13l-5.95,10.53l10.53,5.95l5.95,-10.53zM800.98,685.61l-5.95,10.53l10.53,5.95l5.95,-10.53zM895.79,858.74l-5.95,10.53l10.53,5.95l5.95,-10.53zM881.13,461.65l-5.95,10.53l10.53,5.95l5.95,-10.53zM922.35,754.77l-5.95,10.53l10.53,5.95l5.95,-10.53zM716.71,867.44l-5.95,10.53l10.53,5.95l5.95,-10.53z" />
			<path id="Layer" class="shp1" d="M753.81,812.48c39.39,-10.08 74.2,51.3 56.33,57.71c-12.82,4.58 13.28,28.4 18.32,-0.92c5.04,-29.31 -47.17,-78.32 -78.32,-62.75c-35.72,17.4 -5.04,70.07 -4.58,70.99c0,0.46 -21.98,-57.25 8.24,-65.04zM810.14,870.19c-12.82,4.58 -65.04,-90.23 -15.57,-101.22c49.01,-10.53 84.73,61.83 63.2,62.75c-21.53,0.92 15.11,29.31 20.15,3.66c9.62,-50.84 -57.71,-102.13 -99.39,-79.23c-29.77,16.49 -18.32,60.91 -7.33,86.1c18.78,43.05 51.3,55.88 57.25,27.02c0,0 -0.46,-5.5 -18.32,0.92zM857.77,831.72c-21.53,1.37 -47.63,-68.7 -15.57,-85.65c27.94,-15.11 59.08,11.91 68.24,28.4c10.08,17.4 12.82,5.04 12.82,5.04c-7.79,-26.56 -47.17,-64.58 -81.98,-51.3c-36.64,13.28 -36.64,54.04 -21.98,82.9c19.69,38.01 54.04,50.38 58.62,24.27c0,0 1.37,-5.04 -20.15,-3.66zM910.44,774.47c10.08,17.4 5.5,51.75 -25.19,0.92c-28.85,-48.55 35.72,-77.86 36.64,-77.86c0.46,0.46 -71.45,26.11 -42.14,82.44c28.4,54.5 52.67,28.85 43.51,0c-8.7,-26.56 -21.98,-21.98 -12.82,-5.5zM788.16,616.91l-5.5,9.62l9.62,5.5l5.5,-9.62zM851.82,474.93l-5.5,9.62l9.62,5.5l5.5,-9.62zM883.88,683.78l-5.5,9.62l9.62,5.95l5.5,-9.62zM931.05,868.81l-5.5,9.62l9.62,5.5l5.5,-9.62zM764.34,739.2l-5.5,9.62l9.62,5.5l5.5,-9.62zM748.77,486.38l-5.5,9.62l9.62,5.5l5.5,-9.62zM903.57,561.04l-5.5,9.62l9.62,5.5l5.5,-9.62z" />
		</g>
		<g id="confetti">
			<path id="Layer" class="shp1" d="M807.39,968.65c27.48,29.31 -9.62,87.48 -23.36,75.11c-10.08,-9.16 -18.32,24.27 9.62,15.11c27.94,-9.16 45.34,-76.03 16.95,-96.18c-32.06,-22.44 -63.2,27.94 -63.66,28.4c-0.46,0.46 39.39,-44.88 60.46,-22.44zM784.04,1043.76c-10.08,-9.16 47.63,-97.1 80.15,-59.54c32.98,37.1 -13.28,100.76 -24.27,82.44c-10.99,-17.86 -18.32,26.56 6.41,19.24c49.01,-14.66 61.37,-96.18 21.98,-121.37c-28.85,-17.86 -61.83,11.91 -78.78,32.98c-28.4,35.72 -24.27,69.62 3.66,61.37c0,0 4.58,-2.75 -9.16,-15.11zM840.37,1067.12c-11.45,-17.86 37.1,-72.36 66.87,-52.67c26.56,16.95 17.86,56.33 8.24,71.91c-10.53,16.49 1.37,13.28 1.37,13.28c19.24,-19.24 33.43,-70.07 5.5,-94.35c-29.31,-25.19 -64.58,-6.41 -82.44,19.24c-23.82,34.35 -18.32,69.16 6.41,61.37c0,0 5.04,-1.37 -5.95,-18.78zM915.02,1085.89c-10.53,16.49 -43.05,28.4 -12.82,-21.07c28.4,-46.72 84.73,-5.04 84.73,-4.12c0,0.46 -56.79,-49.46 -91.6,0.92c-33.89,49.46 0,58.62 20.61,37.56c19.24,-19.24 8.7,-28.85 -0.92,-13.28zM751.98,1065.74l-5.95,10.53l10.53,5.95l5.95,-10.53zM800.98,1142.23l-5.95,10.53l10.53,5.95l5.95,-10.53zM895.79,1315.35l-5.95,10.53l10.53,5.95l5.95,-10.53zM881.13,918.27l-5.95,10.53l10.53,5.95l5.95,-10.53zM922.35,1211.39l-5.95,10.53l10.53,5.95l5.95,-10.53zM716.71,1324.05l-5.95,10.53l10.53,5.95l5.95,-10.53z" />
			<path id="Layer" class="shp1" d="M753.81,1269.09c39.39,-10.08 74.2,51.3 56.33,57.71c-12.82,4.58 13.28,28.4 18.32,-0.92c5.04,-29.31 -47.17,-78.32 -78.32,-62.75c-35.72,17.4 -5.04,70.07 -4.58,70.99c0,0.46 -21.98,-57.25 8.24,-65.04zM810.14,1326.8c-12.82,4.58 -65.04,-90.23 -15.57,-101.22c49.01,-10.53 84.73,61.83 63.2,62.75c-21.53,0.92 15.11,29.31 20.15,3.66c9.62,-50.84 -57.71,-102.13 -99.39,-79.23c-29.77,16.49 -18.32,60.91 -7.33,86.1c18.78,43.05 51.3,55.88 57.25,27.02c0,0 -0.46,-5.5 -18.32,0.92zM857.77,1288.33c-21.53,1.37 -47.63,-68.7 -15.57,-85.65c27.94,-15.11 59.08,11.91 68.24,28.4c10.08,17.4 12.82,5.04 12.82,5.04c-7.79,-26.56 -47.17,-64.58 -81.98,-51.3c-36.64,13.28 -36.64,54.04 -21.98,82.9c19.69,38.01 54.04,50.38 58.62,24.27c0,0 1.37,-5.04 -20.15,-3.66zM910.44,1231.08c10.08,17.4 5.5,51.75 -25.19,0.92c-28.85,-48.55 35.72,-77.86 36.64,-77.86c0.46,0.46 -71.45,26.11 -42.14,82.44c28.4,54.5 52.67,28.85 43.51,0c-8.7,-26.56 -21.98,-21.98 -12.82,-5.5zM788.16,1073.53l-5.5,9.62l9.62,5.5l5.5,-9.62zM851.82,931.55l-5.5,9.62l9.62,5.5l5.5,-9.62zM883.88,1140.4l-5.5,9.62l9.62,5.95l5.5,-9.62zM931.05,1325.43l-5.5,9.62l9.62,5.5l5.5,-9.62zM764.34,1195.81l-5.5,9.62l9.62,5.5l5.5,-9.62zM748.77,943l-5.5,9.62l9.62,5.5l5.5,-9.62zM903.57,1017.65l-5.5,9.62l9.62,5.5l5.5,-9.62z" />
		</g>
		<g id="confetti">
			<path id="Layer" class="shp1" d="M807.39,1425.26c27.48,29.31 -9.62,87.48 -23.36,75.11c-10.08,-9.16 -18.32,24.27 9.62,15.11c27.94,-9.16 45.34,-76.03 16.95,-96.18c-32.06,-22.44 -63.2,27.94 -63.66,28.4c-0.46,0.46 39.39,-44.88 60.46,-22.44zM784.04,1500.37c-10.08,-9.16 47.63,-97.1 80.15,-59.54c32.98,37.1 -13.28,100.76 -24.27,82.44c-10.99,-17.86 -18.32,26.56 6.41,19.24c49.01,-14.66 61.37,-96.18 21.98,-121.37c-28.85,-17.86 -61.83,11.91 -78.78,32.98c-28.4,35.72 -24.27,69.62 3.66,61.37c0,0 4.58,-2.75 -9.16,-15.11zM840.37,1523.73c-11.45,-17.86 37.1,-72.36 66.87,-52.67c26.56,16.95 17.86,56.33 8.24,71.91c-10.53,16.49 1.37,13.28 1.37,13.28c19.24,-19.24 33.43,-70.07 5.5,-94.35c-29.31,-25.19 -64.58,-6.41 -82.44,19.24c-23.82,34.35 -18.32,69.16 6.41,61.37c0,0 5.04,-1.37 -5.95,-18.78zM915.02,1542.51c-10.53,16.49 -43.05,28.4 -12.82,-21.07c28.4,-46.72 84.73,-5.04 84.73,-4.12c0,0.46 -56.79,-49.46 -91.6,0.92c-33.89,49.46 0,58.62 20.61,37.56c19.24,-19.24 8.7,-28.85 -0.92,-13.28zM751.98,1522.36l-5.95,10.53l10.53,5.95l5.95,-10.53zM800.98,1598.84l-5.95,10.53l10.53,5.95l5.95,-10.53zM895.79,1771.97l-5.95,10.53l10.53,5.95l5.95,-10.53zM881.13,1374.88l-5.95,10.53l10.53,5.95l5.95,-10.53zM922.35,1668l-5.95,10.53l10.53,5.95l5.95,-10.53zM716.71,1780.67l-5.95,10.53l10.53,5.95l5.95,-10.53z" />
			<path id="Layer" class="shp1" d="M753.81,1725.71c39.39,-10.08 74.2,51.3 56.33,57.71c-12.82,4.58 13.28,28.4 18.32,-0.92c5.04,-29.31 -47.17,-78.32 -78.32,-62.75c-35.72,17.4 -5.04,70.07 -4.58,70.99c0,0.46 -21.98,-57.25 8.24,-65.04zM810.14,1783.42c-12.82,4.58 -65.04,-90.23 -15.57,-101.22c49.01,-10.53 84.73,61.83 63.2,62.75c-21.53,0.92 15.11,29.31 20.15,3.66c9.62,-50.84 -57.71,-102.13 -99.39,-79.23c-29.77,16.49 -18.32,60.91 -7.33,86.1c18.78,43.05 51.3,55.88 57.25,27.02c0,0 -0.46,-5.5 -18.32,0.92zM857.77,1744.94c-21.53,1.37 -47.63,-68.7 -15.57,-85.65c27.94,-15.11 59.08,11.91 68.24,28.4c10.08,17.4 12.82,5.04 12.82,5.04c-7.79,-26.56 -47.17,-64.58 -81.98,-51.3c-36.64,13.28 -36.64,54.04 -21.98,82.9c19.69,38.01 54.04,50.38 58.62,24.27c0,0 1.37,-5.04 -20.15,-3.66zM910.44,1687.69c10.08,17.4 5.5,51.75 -25.19,0.92c-28.85,-48.55 35.72,-77.86 36.64,-77.86c0.46,0.46 -71.45,26.11 -42.14,82.44c28.4,54.5 52.67,28.85 43.51,0c-8.7,-26.56 -21.98,-21.98 -12.82,-5.5zM788.16,1530.14l-5.5,9.62l9.62,5.5l5.5,-9.62zM851.82,1388.16l-5.5,9.62l9.62,5.5l5.5,-9.62zM883.88,1597.01l-5.5,9.62l9.62,5.95l5.5,-9.62zM931.05,1782.04l-5.5,9.62l9.62,5.5l5.5,-9.62zM764.34,1652.43l-5.5,9.62l9.62,5.5l5.5,-9.62zM748.77,1399.61l-5.5,9.62l9.62,5.5l5.5,-9.62zM903.57,1474.27l-5.5,9.62l9.62,5.5l5.5,-9.62z" />
		</g>
	</g>
	<g id="Border-left">
		<g id="confetti">
			<path id="Layer" class="shp1" d="M201.06,77.86c-0.46,-0.46 -31.6,-50.84 -63.66,-28.4c-28.4,20.15 -10.99,87.02 16.95,96.18c27.94,9.16 19.69,-24.27 9.62,-15.11c-13.74,12.37 -50.84,-45.8 -23.36,-75.11c21.07,-22.44 60.91,22.9 60.46,22.44zM154.8,145.64c27.94,8.24 32.06,-25.65 3.66,-61.37c-16.95,-21.07 -49.92,-50.84 -78.78,-32.98c-39.39,25.19 -27.02,106.71 21.98,121.37c24.73,7.33 17.4,-37.1 6.41,-19.24c-10.99,18.32 -57.25,-45.34 -24.27,-82.44c32.52,-37.56 90.23,50.38 80.15,59.54c-13.74,12.37 -9.16,15.11 -9.16,15.11zM101.68,172.67c24.73,7.79 30.23,-27.02 6.41,-61.37c-17.86,-25.65 -53.13,-44.43 -82.44,-19.24c-27.94,24.27 -13.74,75.11 5.5,94.35c0,0 11.91,3.21 1.37,-13.28c-9.62,-15.57 -18.32,-54.96 8.24,-71.91c29.77,-19.69 78.32,34.81 66.87,52.67c-10.99,17.4 -5.95,18.78 -5.95,18.78zM32.06,185.95c20.61,21.07 54.5,11.91 20.61,-37.56c-34.81,-50.38 -91.6,-0.46 -91.6,-0.92c0,-0.92 56.33,-42.59 84.73,4.12c30.23,49.46 -2.29,37.56 -12.82,21.07c-9.62,-15.57 -20.15,-5.95 -0.92,13.28zM185.49,158.47l5.95,10.53l10.53,-5.95l-5.95,-10.53zM136.48,234.95l5.95,10.53l10.53,-5.95l-5.95,-10.53zM41.68,408.08l5.95,10.53l10.53,-5.95l-5.95,-10.53zM56.33,10.99l5.95,10.53l10.53,-5.95l-5.95,-10.53zM15.11,304.11l5.95,10.53l10.53,-5.95l-5.95,-10.53zM220.76,416.78l5.95,10.53l10.53,-5.95l-5.95,-10.53z" />
			<path id="Layer" class="shp1" d="M202.44,420.9c0.46,-0.92 31.14,-53.59 -4.58,-70.99c-31.14,-15.57 -83.36,33.43 -78.32,62.75c5.04,29.31 31.14,5.5 18.32,0.92c-17.86,-6.41 16.95,-67.78 56.33,-57.71c30.23,7.79 8.24,65.49 8.24,65.04zM119.54,412.66c5.95,28.85 38.47,16.03 57.25,-27.02c10.99,-25.19 22.44,-69.62 -7.33,-86.1c-41.68,-22.9 -109,28.4 -99.39,79.23c5.04,25.65 41.68,-2.75 20.15,-3.66c-21.53,-0.92 14.2,-73.28 63.2,-62.75c49.46,10.99 -2.75,105.8 -15.57,101.22c-17.86,-6.41 -18.32,-0.92 -18.32,-0.92zM70.07,378.77c4.58,26.11 38.93,13.74 58.62,-24.27c14.66,-28.85 14.66,-69.62 -21.98,-82.9c-34.81,-13.28 -74.2,24.73 -81.98,51.3c0,0 2.75,12.37 12.82,-5.04c9.16,-16.49 40.3,-43.51 68.24,-28.4c32.06,16.95 5.95,87.02 -15.57,85.65c-21.53,-1.37 -20.15,3.66 -20.15,3.66zM24.73,323.35c-9.16,28.85 15.11,54.5 43.51,0c29.31,-56.33 -42.59,-81.98 -42.14,-82.44c0.92,0 65.49,29.31 36.64,77.86c-30.69,50.84 -35.27,16.49 -25.19,-0.92c9.16,-16.49 -4.12,-21.07 -12.82,5.5zM150.22,165.8l5.5,9.62l9.62,-5.5l-5.5,-9.62zM86.56,23.82l5.5,9.62l9.62,-5.5l-5.5,-9.62zM54.5,233.12l5.5,9.62l9.62,-5.95l-5.5,-9.62zM7.33,417.7l5.5,9.62l9.62,-5.5l-5.5,-9.62zM174.04,288.08l5.5,9.62l9.62,-5.5l-5.5,-9.62zM189.61,35.27l5.5,9.62l9.62,-5.5l-5.5,-9.62zM34.81,109.92l5.5,9.62l9.62,-5.5l-5.5,-9.62z" />
		</g>
		<g id="confetti">
			<path id="Layer" class="shp1" d="M201.06,534.47c-0.46,-0.46 -31.6,-50.84 -63.66,-28.4c-28.4,20.15 -10.99,87.02 16.95,96.18c27.94,9.16 19.69,-24.27 9.62,-15.11c-13.74,12.37 -50.84,-45.8 -23.36,-75.11c21.07,-22.44 60.91,22.9 60.46,22.44zM154.8,602.26c27.94,8.24 32.06,-25.65 3.66,-61.37c-16.95,-21.07 -49.92,-50.84 -78.78,-32.98c-39.39,25.19 -27.02,106.71 21.98,121.37c24.73,7.33 17.4,-37.1 6.41,-19.24c-10.99,18.32 -57.25,-45.34 -24.27,-82.44c32.52,-37.56 90.23,50.38 80.15,59.54c-13.74,12.37 -9.16,15.11 -9.16,15.11zM101.68,629.28c24.73,7.79 30.23,-27.02 6.41,-61.37c-17.86,-25.65 -53.13,-44.43 -82.44,-19.24c-27.94,24.27 -13.74,75.11 5.5,94.35c0,0 11.91,3.21 1.37,-13.28c-9.62,-15.57 -18.32,-54.96 8.24,-71.91c29.77,-19.69 78.32,34.81 66.87,52.67c-10.99,17.4 -5.95,18.78 -5.95,18.78zM32.06,642.56c20.61,21.07 54.5,11.91 20.61,-37.56c-34.81,-50.38 -91.6,-0.46 -91.6,-0.92c0,-0.92 56.33,-42.59 84.73,4.12c30.23,49.46 -2.29,37.56 -12.82,21.07c-9.62,-15.57 -20.15,-5.95 -0.92,13.28zM185.49,615.08l5.95,10.53l10.53,-5.95l-5.95,-10.53zM136.48,691.57l5.95,10.53l10.53,-5.95l-5.95,-10.53zM41.68,864.69l5.95,10.53l10.53,-5.95l-5.95,-10.53zM56.33,467.61l5.95,10.53l10.53,-5.95l-5.95,-10.53zM15.11,760.73l5.95,10.53l10.53,-5.95l-5.95,-10.53zM220.76,873.39l5.95,10.53l10.53,-5.95l-5.95,-10.53z" />
			<path id="Layer" class="shp1" d="M202.44,877.52c0.46,-0.92 31.14,-53.59 -4.58,-70.99c-31.14,-15.57 -83.36,33.43 -78.32,62.75c5.04,29.31 31.14,5.5 18.32,0.92c-17.86,-6.41 16.95,-67.78 56.33,-57.71c30.23,7.79 8.24,65.49 8.24,65.04zM119.54,869.27c5.95,28.85 38.47,16.03 57.25,-27.02c10.99,-25.19 22.44,-69.62 -7.33,-86.1c-41.68,-22.9 -109,28.4 -99.39,79.23c5.04,25.65 41.68,-2.75 20.15,-3.66c-21.53,-0.92 14.2,-73.28 63.2,-62.75c49.46,10.99 -2.75,105.8 -15.57,101.22c-17.86,-6.41 -18.32,-0.92 -18.32,-0.92zM70.07,835.38c4.58,26.11 38.93,13.74 58.62,-24.27c14.66,-28.85 14.66,-69.62 -21.98,-82.9c-34.81,-13.28 -74.2,24.73 -81.98,51.3c0,0 2.75,12.37 12.82,-5.04c9.16,-16.49 40.3,-43.51 68.24,-28.4c32.06,16.95 5.95,87.02 -15.57,85.65c-21.53,-1.37 -20.15,3.66 -20.15,3.66zM24.73,779.96c-9.16,28.85 15.11,54.5 43.51,0c29.31,-56.33 -42.59,-81.98 -42.14,-82.44c0.92,0 65.49,29.31 36.64,77.86c-30.69,50.84 -35.27,16.49 -25.19,-0.92c9.16,-16.49 -4.12,-21.07 -12.82,5.5zM150.22,622.41l5.5,9.62l9.62,-5.5l-5.5,-9.62zM86.56,480.43l5.5,9.62l9.62,-5.5l-5.5,-9.62zM54.5,689.74l5.5,9.62l9.62,-5.95l-5.5,-9.62zM7.33,874.31l5.5,9.62l9.62,-5.5l-5.5,-9.62zM174.04,744.7l5.5,9.62l9.62,-5.5l-5.5,-9.62zM189.61,491.88l5.5,9.62l9.62,-5.5l-5.5,-9.62zM34.81,566.53l5.5,9.62l9.62,-5.5l-5.5,-9.62z" />
		</g>
		<g id="confetti">
			<path id="Layer" class="shp1" d="M201.06,991.09c-0.46,-0.46 -31.6,-50.84 -63.66,-28.4c-28.4,20.15 -10.99,87.02 16.95,96.18c27.94,9.16 19.69,-24.27 9.62,-15.11c-13.74,12.37 -50.84,-45.8 -23.36,-75.11c21.07,-22.44 60.91,22.9 60.46,22.44zM154.8,1058.87c27.94,8.24 32.06,-25.65 3.66,-61.37c-16.95,-21.07 -49.92,-50.84 -78.78,-32.98c-39.39,25.19 -27.02,106.71 21.98,121.37c24.73,7.33 17.4,-37.1 6.41,-19.24c-10.99,18.32 -57.25,-45.34 -24.27,-82.44c32.52,-37.56 90.23,50.38 80.15,59.54c-13.74,12.37 -9.16,15.11 -9.16,15.11zM101.68,1085.89c24.73,7.79 30.23,-27.02 6.41,-61.37c-17.86,-25.65 -53.13,-44.43 -82.44,-19.24c-27.94,24.27 -13.74,75.11 5.5,94.35c0,0 11.91,3.21 1.37,-13.28c-9.62,-15.57 -18.32,-54.96 8.24,-71.91c29.77,-19.69 78.32,34.81 66.87,52.67c-10.99,17.4 -5.95,18.78 -5.95,18.78zM32.06,1099.18c20.61,21.07 54.5,11.91 20.61,-37.56c-34.81,-50.38 -91.6,-0.46 -91.6,-0.92c0,-0.92 56.33,-42.59 84.73,4.12c30.23,49.46 -2.29,37.56 -12.82,21.07c-9.62,-15.57 -20.15,-5.95 -0.92,13.28zM185.49,1071.7l5.95,10.53l10.53,-5.95l-5.95,-10.53zM136.48,1148.18l5.95,10.53l10.53,-5.95l-5.95,-10.53zM41.68,1321.31l5.95,10.53l10.53,-5.95l-5.95,-10.53zM56.33,924.22l5.95,10.53l10.53,-5.95l-5.95,-10.53zM15.11,1217.34l5.95,10.53l10.53,-5.95l-5.95,-10.53zM220.76,1330.01l5.95,10.53l10.53,-5.95l-5.95,-10.53z" />
			<path id="Layer" class="shp1" d="M202.44,1334.13c0.46,-0.92 31.14,-53.59 -4.58,-70.99c-31.14,-15.57 -83.36,33.43 -78.32,62.75c5.04,29.31 31.14,5.5 18.32,0.92c-17.86,-6.41 16.95,-67.78 56.33,-57.71c30.23,7.79 8.24,65.49 8.24,65.04zM119.54,1325.89c5.95,28.85 38.47,16.03 57.25,-27.02c10.99,-25.19 22.44,-69.62 -7.33,-86.1c-41.68,-22.9 -109,28.4 -99.39,79.23c5.04,25.65 41.68,-2.75 20.15,-3.66c-21.53,-0.92 14.2,-73.28 63.2,-62.75c49.46,10.99 -2.75,105.8 -15.57,101.22c-17.86,-6.41 -18.32,-0.92 -18.32,-0.92zM70.07,1291.99c4.58,26.11 38.93,13.74 58.62,-24.27c14.66,-28.85 14.66,-69.62 -21.98,-82.9c-34.81,-13.28 -74.2,24.73 -81.98,51.3c0,0 2.75,12.37 12.82,-5.04c9.16,-16.49 40.3,-43.51 68.24,-28.4c32.06,16.95 5.95,87.02 -15.57,85.65c-21.53,-1.37 -20.15,3.66 -20.15,3.66zM24.73,1236.58c-9.16,28.85 15.11,54.5 43.51,0c29.31,-56.33 -42.59,-81.98 -42.14,-82.44c0.92,0 65.49,29.31 36.64,77.86c-30.69,50.84 -35.27,16.49 -25.19,-0.92c9.16,-16.49 -4.12,-21.07 -12.82,5.5zM150.22,1079.02l5.5,9.62l9.62,-5.5l-5.5,-9.62zM86.56,937.04l5.5,9.62l9.62,-5.5l-5.5,-9.62zM54.5,1146.35l5.5,9.62l9.62,-5.95l-5.5,-9.62zM7.33,1330.92l5.5,9.62l9.62,-5.5l-5.5,-9.62zM174.04,1201.31l5.5,9.62l9.62,-5.5l-5.5,-9.62zM189.61,948.49l5.5,9.62l9.62,-5.5l-5.5,-9.62zM34.81,1023.15l5.5,9.62l9.62,-5.5l-5.5,-9.62z" />
		</g>
		<g id="confetti">
			<path id="Layer" class="shp1" d="M201.06,1447.7c-0.46,-0.46 -31.6,-50.84 -63.66,-28.4c-28.4,20.15 -10.99,87.02 16.95,96.18c27.94,9.16 19.69,-24.27 9.62,-15.11c-13.74,12.37 -50.84,-45.8 -23.36,-75.11c21.07,-22.44 60.91,22.9 60.46,22.44zM154.8,1515.49c27.94,8.24 32.06,-25.65 3.66,-61.37c-16.95,-21.07 -49.92,-50.84 -78.78,-32.98c-39.39,25.19 -27.02,106.71 21.98,121.37c24.73,7.33 17.4,-37.1 6.41,-19.24c-10.99,18.32 -57.25,-45.34 -24.27,-82.44c32.52,-37.56 90.23,50.38 80.15,59.54c-13.74,12.37 -9.16,15.11 -9.16,15.11zM101.68,1542.51c24.73,7.79 30.23,-27.02 6.41,-61.37c-17.86,-25.65 -53.13,-44.43 -82.44,-19.24c-27.94,24.27 -13.74,75.11 5.5,94.35c0,0 11.91,3.21 1.37,-13.28c-9.62,-15.57 -18.32,-54.96 8.24,-71.91c29.77,-19.69 78.32,34.81 66.87,52.67c-10.99,17.4 -5.95,18.78 -5.95,18.78zM32.06,1555.79c20.61,21.07 54.5,11.91 20.61,-37.56c-34.81,-50.38 -91.6,-0.46 -91.6,-0.92c0,-0.92 56.33,-42.59 84.73,4.12c30.23,49.46 -2.29,37.56 -12.82,21.07c-9.62,-15.57 -20.15,-5.95 -0.92,13.28zM185.49,1528.31l5.95,10.53l10.53,-5.95l-5.95,-10.53zM136.48,1604.8l5.95,10.53l10.53,-5.95l-5.95,-10.53zM41.68,1777.92l5.95,10.53l10.53,-5.95l-5.95,-10.53zM56.33,1380.83l5.95,10.53l10.53,-5.95l-5.95,-10.53zM15.11,1673.95l5.95,10.53l10.53,-5.95l-5.95,-10.53zM220.76,1786.62l5.95,10.53l10.53,-5.95l-5.95,-10.53z" />
			<path id="Layer" class="shp1" d="M202.44,1790.74c0.46,-0.92 31.14,-53.59 -4.58,-70.99c-31.14,-15.57 -83.36,33.43 -78.32,62.75c5.04,29.31 31.14,5.5 18.32,0.92c-17.86,-6.41 16.95,-67.78 56.33,-57.71c30.23,7.79 8.24,65.49 8.24,65.04zM119.54,1782.5c5.95,28.85 38.47,16.03 57.25,-27.02c10.99,-25.19 22.44,-69.62 -7.33,-86.1c-41.68,-22.9 -109,28.4 -99.39,79.23c5.04,25.65 41.68,-2.75 20.15,-3.66c-21.53,-0.92 14.2,-73.28 63.2,-62.75c49.46,10.99 -2.75,105.8 -15.57,101.22c-17.86,-6.41 -18.32,-0.92 -18.32,-0.92zM70.07,1748.61c4.58,26.11 38.93,13.74 58.62,-24.27c14.66,-28.85 14.66,-69.62 -21.98,-82.9c-34.81,-13.28 -74.2,24.73 -81.98,51.3c0,0 2.75,12.37 12.82,-5.04c9.16,-16.49 40.3,-43.51 68.24,-28.4c32.06,16.95 5.95,87.02 -15.57,85.65c-21.53,-1.37 -20.15,3.66 -20.15,3.66zM24.73,1693.19c-9.16,28.85 15.11,54.5 43.51,0c29.31,-56.33 -42.59,-81.98 -42.14,-82.44c0.92,0 65.49,29.31 36.64,77.86c-30.69,50.84 -35.27,16.49 -25.19,-0.92c9.16,-16.49 -4.12,-21.07 -12.82,5.5zM150.22,1535.64l5.5,9.62l9.62,-5.5l-5.5,-9.62zM86.56,1393.66l5.5,9.62l9.62,-5.5l-5.5,-9.62zM54.5,1602.96l5.5,9.62l9.62,-5.95l-5.5,-9.62zM7.33,1787.54l5.5,9.62l9.62,-5.5l-5.5,-9.62zM174.04,1657.92l5.5,9.62l9.62,-5.5l-5.5,-9.62zM189.61,1405.11l5.5,9.62l9.62,-5.5l-5.5,-9.62zM34.81,1479.76l5.5,9.62l9.62,-5.5l-5.5,-9.62z" />
		</g>
	</g>
	<text id="What a beautiful day." style="transform: matrix(1,0,0,1,474,842.88)" >
		<tspan x="0" y="0" class="txt2">What a beautiful day.</tspan>
	</text>
	<text id="Hello World! " style="transform: matrix(1,0,0,1,474,793.68)" >
		<tspan x="0" y="0" class="txt3">Hello World!</tspan>
	</text>
	<text id="Detail " style="transform: matrix(1,0,0,1,334,121)" >
		<tspan x="0" y="0" class="txt3">Detail</tspan>
	</text>
	<text id="Detail " style="transform: matrix(1,0,0,1,569,1495)" >
		<tspan x="0" y="0" class="txt3">Detail</tspan>
	</text>
	<text id="Detail " style="transform: matrix(1,0,0,1,358,1309)" >
		<tspan x="0" y="0" class="txt3">Detail</tspan>
	</text>
	<text id="Detail " style="transform: matrix(1,0,0,1,619,1060)" >
		<tspan x="0" y="0" class="txt3">Detail</tspan>
	</text>
	<text id="Detail " style="transform: matrix(1,0,0,1,346,589)" >
		<tspan x="0" y="0" class="txt3">Detail</tspan>
	</text>
	<text id="Detail " style="transform: matrix(1,0,0,1,613,364)" >
		<tspan x="0" y="0" class="txt3">Detail</tspan>
	</text>
</svg>