<svg xmlns="http://www.w3.org/2000/svg" viewBox="0 0 1280 720" width="1280" height="720">
	<style>
		tspan { white-space:pre }
		.shp0 { fill: #243b52 } 
		.shp1 { fill: #ffffff } 
		.shp2 { fill: #6892bc } 
		.txt3 { font-size: 23px;fill: #ffffff;font-family: "HYXiaoMaiTiJ";font-weight: 400;text-anchor: end } 
		.txt4 { font-size: 58px;fill: #ffffff;font-family: "HYXiaoMaiTiJ";font-weight: 400;text-anchor: end } 
	</style>
	<path id="Background" class="shp0" d="M0,720h1280v-720h-1280z" />
	<g id="Border-top">
		<g id="christmas">
			<path id="Layer" class="shp1" d="M123.72,107.07c0,-24.18 -19.47,-43.65 -43.65,-43.65c-24.18,0 -43.65,19.47 -43.65,43.65c0,24.18 19.47,43.65 43.65,43.65c24.18,0 43.65,-19.47 43.65,-43.65zM90.75,62.17c0,-5.97 -4.71,-10.68 -10.68,-10.68c-5.97,0 -10.68,4.71 -10.68,10.68c0,5.97 4.71,10.68 10.68,10.68c5.97,0 10.68,-4.71 10.68,-10.68zM78.81,77.87h2.83v-125.6h-2.83z" />
			<path id="Layer" class="shp2" d="M277.89,151.98c0,-24.18 -19.47,-43.65 -43.65,-43.65c-24.18,0 -43.65,19.47 -43.65,43.65c0,24.18 19.47,43.65 43.65,43.65c24.18,0 43.65,-19.47 43.65,-43.65zM245.23,107.39c0,-5.97 -4.71,-10.68 -10.68,-10.68c-5.97,0 -10.68,4.71 -10.68,10.68c0,5.97 4.71,10.68 10.68,10.68c5.97,0 10.68,-4.71 10.68,-10.68zM232.99,123.09h2.83v-125.6h-2.83z" />
		</g>
		<g id="christmas">
			<path id="Layer" class="shp1" d="M437.43,107.07c0,-24.18 -19.47,-43.65 -43.65,-43.65c-24.18,0 -43.65,19.47 -43.65,43.65c0,24.18 19.47,43.65 43.65,43.65c24.18,0 43.65,-19.47 43.65,-43.65zM404.46,62.17c0,-5.97 -4.71,-10.68 -10.68,-10.68c-5.97,0 -10.68,4.71 -10.68,10.68c0,5.97 4.71,10.68 10.68,10.68c5.97,0 10.68,-4.71 10.68,-10.68zM392.53,77.87h2.83v-125.6h-2.83z" />
			<path id="Layer" class="shp2" d="M591.6,151.98c0,-24.18 -19.47,-43.65 -43.65,-43.65c-24.18,0 -43.65,19.47 -43.65,43.65c0,24.18 19.47,43.65 43.65,43.65c24.18,0 43.65,-19.47 43.65,-43.65zM558.95,107.39c0,-5.97 -4.71,-10.68 -10.68,-10.68c-5.97,0 -10.68,4.71 -10.68,10.68c0,5.97 4.71,10.68 10.68,10.68c5.97,0 10.68,-4.71 10.68,-10.68zM546.7,123.09h2.83v-125.6h-2.83z" />
		</g>
		<g id="christmas">
			<path id="Layer" class="shp1" d="M751.14,107.07c0,-24.18 -19.47,-43.65 -43.65,-43.65c-24.18,0 -43.65,19.47 -43.65,43.65c0,24.18 19.47,43.65 43.65,43.65c24.18,0 43.65,-19.47 43.65,-43.65zM718.17,62.17c0,-5.97 -4.71,-10.68 -10.68,-10.68c-5.97,0 -10.68,4.71 -10.68,10.68c0,5.97 4.71,10.68 10.68,10.68c5.97,0 10.68,-4.71 10.68,-10.68zM706.24,77.87h2.83v-125.6h-2.83z" />
			<path id="Layer" class="shp2" d="M905.32,151.98c0,-24.18 -19.47,-43.65 -43.65,-43.65c-24.18,0 -43.65,19.47 -43.65,43.65c0,24.18 19.47,43.65 43.65,43.65c24.18,0 43.65,-19.47 43.65,-43.65zM872.66,107.39c0,-5.97 -4.71,-10.68 -10.68,-10.68c-5.97,0 -10.68,4.71 -10.68,10.68c0,5.97 4.71,10.68 10.68,10.68c5.97,0 10.68,-4.71 10.68,-10.68zM860.42,123.09h2.83v-125.6h-2.83z" />
		</g>
		<g id="christmas">
			<path id="Layer" class="shp1" d="M1064.86,107.07c0,-24.18 -19.47,-43.65 -43.65,-43.65c-24.18,0 -43.65,19.47 -43.65,43.65c0,24.18 19.47,43.65 43.65,43.65c24.18,0 43.65,-19.47 43.65,-43.65zM1031.89,62.17c0,-5.97 -4.71,-10.68 -10.68,-10.68c-5.97,0 -10.68,4.71 -10.68,10.68c0,5.97 4.71,10.68 10.68,10.68c5.97,0 10.68,-4.71 10.68,-10.68zM1019.96,77.87h2.83v-125.6h-2.83z" />
			<path id="Layer" class="shp2" d="M1219.03,151.98c0,-24.18 -19.47,-43.65 -43.65,-43.65c-24.18,0 -43.65,19.47 -43.65,43.65c0,24.18 19.47,43.65 43.65,43.65c24.18,0 43.65,-19.47 43.65,-43.65zM1186.38,107.39c0,-5.97 -4.71,-10.68 -10.68,-10.68c-5.97,0 -10.68,4.71 -10.68,10.68c0,5.97 4.71,10.68 10.68,10.68c5.97,0 10.68,-4.71 10.68,-10.68zM1174.13,123.09h2.83v-125.6h-2.83z" />
		</g>
		<g id="christmas">
			<path id="Layer" class="shp1" d="M1378.57,107.07c0,-24.18 -19.47,-43.65 -43.65,-43.65c-24.18,0 -43.65,19.47 -43.65,43.65c0,24.18 19.47,43.65 43.65,43.65c24.18,0 43.65,-19.47 43.65,-43.65zM1345.6,62.17c0,-5.97 -4.71,-10.68 -10.68,-10.68c-5.97,0 -10.68,4.71 -10.68,10.68c0,5.97 4.71,10.68 10.68,10.68c5.97,0 10.68,-4.71 10.68,-10.68zM1333.67,77.87h2.83v-125.6h-2.83z" />
			<path id="Layer" class="shp2" d="M1532.75,151.98c0,-24.18 -19.47,-43.65 -43.65,-43.65c-24.18,0 -43.65,19.47 -43.65,43.65c0,24.18 19.47,43.65 43.65,43.65c24.18,0 43.65,-19.47 43.65,-43.65zM1500.09,107.39c0,-5.97 -4.71,-10.68 -10.68,-10.68c-5.97,0 -10.68,4.71 -10.68,10.68c0,5.97 4.71,10.68 10.68,10.68c5.97,0 10.68,-4.71 10.68,-10.68zM1487.84,123.09h2.83v-125.6h-2.83z" />
		</g>
	</g>
	<text id="What a beautiful day." style="transform: matrix(1,0,0,1,1218,540.62)" >
		<tspan x="0" y="0" class="txt3">What a beautiful day.</tspan>
	</text>
	<text id="Hello World!" style="transform: matrix(1,0,0,1,1177,507.82)" >
		<tspan x="0" y="0" class="txt4">Hello World!</tspan>
	</text>
</svg>